<?xml version="1.0" encoding="UTF-8" standalone="no"?>
<!DOCTYPE svg PUBLIC "-//W3C//DTD SVG 1.1//EN"
 "http://www.w3.org/Graphics/SVG/1.1/DTD/svg11.dtd">
<!-- Generated by graphviz version 2.47.3 (20210619.1520)
 -->
<!-- Title: dependencies Pages: 1 -->
<svg width="4197pt" height="247pt"
 viewBox="0.00 0.00 4197.00 246.80" xmlns="http://www.w3.org/2000/svg" xmlns:xlink="http://www.w3.org/1999/xlink">
<g id="graph0" class="graph" transform="scale(1 1) rotate(0) translate(4 242.8)">
<title>dependencies</title>
<polygon fill="white" stroke="transparent" points="-4,4 -4,-242.8 4193,-242.8 4193,4 -4,4"/>
<text text-anchor="middle" x="2094.5" y="-8.2" font-family="sans-serif" font-size="14.00">dependencies</text>
<g id="clust1" class="cluster">
<title>cluster_AppModule</title>
<polygon fill="none" stroke="black" stroke-dasharray="1,5" points="8,-32.8 8,-230.8 4181,-230.8 4181,-32.8 8,-32.8"/>
</g>
<g id="clust2" class="cluster">
<title>cluster_AppModule_declarations</title>
<polygon fill="none" stroke="black" points="396,-40.8 396,-92.8 4173,-92.8 4173,-40.8 396,-40.8"/>
</g>
<g id="clust26" class="cluster">
<title>cluster_AppModule_providers</title>
<polygon fill="none" stroke="black" points="168,-40.8 168,-92.8 388,-92.8 388,-40.8 168,-40.8"/>
</g>
<g id="clust23" class="cluster">
<title>cluster_AppModule_imports</title>
<polygon fill="none" stroke="black" points="16,-40.8 16,-92.8 160,-92.8 160,-40.8 16,-40.8"/>
</g>
<g id="clust25" class="cluster">
<title>cluster_AppModule_bootstrap</title>
<polygon fill="none" stroke="black" points="1993,-170.8 1993,-222.8 2117,-222.8 2117,-170.8 1993,-170.8"/>
</g>
<!-- AccountComponent -->
<g id="node1" class="node">
<title>AccountComponent</title>
<polygon fill="#ffffb3" stroke="black" points="4165.26,-84.8 4036.74,-84.8 4036.74,-48.8 4165.26,-48.8 4165.26,-84.8"/>
<text text-anchor="middle" x="4101" y="-62.6" font-family="Times,serif" font-size="14.00">AccountComponent</text>
</g>
<!-- AppModule -->
<g id="node21" class="node">
<title>AppModule</title>
<polygon fill="#8dd3c7" stroke="black" points="2096.66,-149.8 2093.66,-153.8 2072.66,-153.8 2069.66,-149.8 2013.34,-149.8 2013.34,-113.8 2096.66,-113.8 2096.66,-149.8"/>
<text text-anchor="middle" x="2055" y="-127.6" font-family="Times,serif" font-size="14.00">AppModule</text>
</g>
<!-- AccountComponent&#45;&gt;AppModule -->
<g id="edge1" class="edge">
<title>AccountComponent&#45;&gt;AppModule</title>
<path fill="none" stroke="black" d="M4101,-84.95C4101,-108.56 4101,-146.8 4101,-146.8 4101,-146.8 2106.8,-146.8 2106.8,-146.8"/>
<polygon fill="black" stroke="black" points="2106.8,-143.3 2096.8,-146.8 2106.8,-150.3 2106.8,-143.3"/>
</g>
<!-- AppComponent -->
<g id="node2" class="node">
<title>AppComponent</title>
<polygon fill="#ffffb3" stroke="black" points="4018.94,-84.8 3913.06,-84.8 3913.06,-48.8 4018.94,-48.8 4018.94,-84.8"/>
<text text-anchor="middle" x="3966" y="-62.6" font-family="Times,serif" font-size="14.00">AppComponent</text>
</g>
<!-- AppComponent&#45;&gt;AppModule -->
<g id="edge2" class="edge">
<title>AppComponent&#45;&gt;AppModule</title>
<path fill="none" stroke="black" d="M3966,-85.05C3966,-107.82 3966,-143.8 3966,-143.8 3966,-143.8 2106.69,-143.8 2106.69,-143.8"/>
<polygon fill="black" stroke="black" points="2106.69,-140.3 2096.69,-143.8 2106.69,-147.3 2106.69,-140.3"/>
</g>
<!-- CreateResourceComponent -->
<g id="node3" class="node">
<title>CreateResourceComponent</title>
<polygon fill="#ffffb3" stroke="black" points="3894.95,-84.8 3725.05,-84.8 3725.05,-48.8 3894.95,-48.8 3894.95,-84.8"/>
<text text-anchor="middle" x="3810" y="-62.6" font-family="Times,serif" font-size="14.00">CreateResourceComponent</text>
</g>
<!-- CreateResourceComponent&#45;&gt;AppModule -->
<g id="edge3" class="edge">
<title>CreateResourceComponent&#45;&gt;AppModule</title>
<path fill="none" stroke="black" d="M3810,-85.09C3810,-107.01 3810,-140.8 3810,-140.8 3810,-140.8 2107.08,-140.8 2107.08,-140.8"/>
<polygon fill="black" stroke="black" points="2107.08,-137.3 2097.08,-140.8 2107.08,-144.3 2107.08,-137.3"/>
</g>
<!-- HeaderComponent -->
<g id="node4" class="node">
<title>HeaderComponent</title>
<polygon fill="#ffffb3" stroke="black" points="3706.74,-84.8 3585.26,-84.8 3585.26,-48.8 3706.74,-48.8 3706.74,-84.8"/>
<text text-anchor="middle" x="3646" y="-62.6" font-family="Times,serif" font-size="14.00">HeaderComponent</text>
</g>
<!-- HeaderComponent&#45;&gt;AppModule -->
<g id="edge4" class="edge">
<title>HeaderComponent&#45;&gt;AppModule</title>
<path fill="none" stroke="black" d="M3646,-84.83C3646,-105.57 3646,-136.8 3646,-136.8 3646,-136.8 2106.74,-136.8 2106.74,-136.8"/>
<polygon fill="black" stroke="black" points="2106.74,-133.3 2096.74,-136.8 2106.74,-140.3 2106.74,-133.3"/>
</g>
<!-- LoginComponent -->
<g id="node5" class="node">
<title>LoginComponent</title>
<polygon fill="#ffffb3" stroke="black" points="3567.28,-84.8 3452.72,-84.8 3452.72,-48.8 3567.28,-48.8 3567.28,-84.8"/>
<text text-anchor="middle" x="3510" y="-62.6" font-family="Times,serif" font-size="14.00">LoginComponent</text>
</g>
<!-- LoginComponent&#45;&gt;AppModule -->
<g id="edge5" class="edge">
<title>LoginComponent&#45;&gt;AppModule</title>
<path fill="none" stroke="black" d="M3510,-85.11C3510,-104.95 3510,-133.8 3510,-133.8 3510,-133.8 2106.98,-133.8 2106.98,-133.8"/>
<polygon fill="black" stroke="black" points="2106.98,-130.3 2096.98,-133.8 2106.98,-137.3 2106.98,-130.3"/>
</g>
<!-- MapPageComponent -->
<g id="node6" class="node">
<title>MapPageComponent</title>
<polygon fill="#ffffb3" stroke="black" points="3435.2,-84.8 3300.8,-84.8 3300.8,-48.8 3435.2,-48.8 3435.2,-84.8"/>
<text text-anchor="middle" x="3368" y="-62.6" font-family="Times,serif" font-size="14.00">MapPageComponent</text>
</g>
<!-- MapPageComponent&#45;&gt;AppModule -->
<g id="edge6" class="edge">
<title>MapPageComponent&#45;&gt;AppModule</title>
<path fill="none" stroke="black" d="M3368,-84.97C3368,-103.89 3368,-130.8 3368,-130.8 3368,-130.8 2106.83,-130.8 2106.83,-130.8"/>
<polygon fill="black" stroke="black" points="2106.83,-127.3 2096.83,-130.8 2106.83,-134.3 2106.83,-127.3"/>
</g>
<!-- ModalDeleteResourceComponent -->
<g id="node7" class="node">
<title>ModalDeleteResourceComponent</title>
<polygon fill="#ffffb3" stroke="black" points="3283.5,-84.8 3076.5,-84.8 3076.5,-48.8 3283.5,-48.8 3283.5,-84.8"/>
<text text-anchor="middle" x="3180" y="-62.6" font-family="Times,serif" font-size="14.00">ModalDeleteResourceComponent</text>
</g>
<!-- ModalDeleteResourceComponent&#45;&gt;AppModule -->
<g id="edge7" class="edge">
<title>ModalDeleteResourceComponent&#45;&gt;AppModule</title>
<path fill="none" stroke="black" d="M3180,-85.1C3180,-103.07 3180,-127.8 3180,-127.8 3180,-127.8 2106.71,-127.8 2106.71,-127.8"/>
<polygon fill="black" stroke="black" points="2106.71,-124.3 2096.71,-127.8 2106.71,-131.3 2106.71,-124.3"/>
</g>
<!-- ModalSingleResourcesActionComponent -->
<g id="node8" class="node">
<title>ModalSingleResourcesActionComponent</title>
<polygon fill="#ffffb3" stroke="black" points="3058.79,-84.8 2809.21,-84.8 2809.21,-48.8 3058.79,-48.8 3058.79,-84.8"/>
<text text-anchor="middle" x="2934" y="-62.6" font-family="Times,serif" font-size="14.00">ModalSingleResourcesActionComponent</text>
</g>
<!-- ModalSingleResourcesActionComponent&#45;&gt;AppModule -->
<g id="edge8" class="edge">
<title>ModalSingleResourcesActionComponent&#45;&gt;AppModule</title>
<path fill="none" stroke="black" d="M2934,-84.84C2934,-101.53 2934,-123.8 2934,-123.8 2934,-123.8 2106.8,-123.8 2106.8,-123.8"/>
<polygon fill="black" stroke="black" points="2106.8,-120.3 2096.8,-123.8 2106.8,-127.3 2106.8,-120.3"/>
</g>
<!-- ModalSingleResourcesParametersComponent -->
<g id="node9" class="node">
<title>ModalSingleResourcesParametersComponent</title>
<polygon fill="#ffffb3" stroke="black" points="2791.88,-84.8 2518.12,-84.8 2518.12,-48.8 2791.88,-48.8 2791.88,-84.8"/>
<text text-anchor="middle" x="2655" y="-62.6" font-family="Times,serif" font-size="14.00">ModalSingleResourcesParametersComponent</text>
</g>
<!-- ModalSingleResourcesParametersComponent&#45;&gt;AppModule -->
<g id="edge9" class="edge">
<title>ModalSingleResourcesParametersComponent&#45;&gt;AppModule</title>
<path fill="none" stroke="black" d="M2655,-85.08C2655,-100.75 2655,-120.8 2655,-120.8 2655,-120.8 2106.71,-120.8 2106.71,-120.8"/>
<polygon fill="black" stroke="black" points="2106.71,-117.3 2096.71,-120.8 2106.71,-124.3 2106.71,-117.3"/>
</g>
<!-- ModalSingleResourcesValuesComponent -->
<g id="node10" class="node">
<title>ModalSingleResourcesValuesComponent</title>
<polygon fill="#ffffb3" stroke="black" points="2500.06,-84.8 2249.94,-84.8 2249.94,-48.8 2500.06,-48.8 2500.06,-84.8"/>
<text text-anchor="middle" x="2375" y="-62.6" font-family="Times,serif" font-size="14.00">ModalSingleResourcesValuesComponent</text>
</g>
<!-- ModalSingleResourcesValuesComponent&#45;&gt;AppModule -->
<g id="edge10" class="edge">
<title>ModalSingleResourcesValuesComponent&#45;&gt;AppModule</title>
<path fill="none" stroke="black" d="M2375,-84.92C2375,-99.58 2375,-117.8 2375,-117.8 2375,-117.8 2106.83,-117.8 2106.83,-117.8"/>
<polygon fill="black" stroke="black" points="2106.83,-114.3 2096.83,-117.8 2106.83,-121.3 2106.83,-114.3"/>
</g>
<!-- PagenotfoundComponent -->
<g id="node11" class="node">
<title>PagenotfoundComponent</title>
<polygon fill="#ffffb3" stroke="black" points="2231.6,-84.8 2072.4,-84.8 2072.4,-48.8 2231.6,-48.8 2231.6,-84.8"/>
<text text-anchor="middle" x="2152" y="-62.6" font-family="Times,serif" font-size="14.00">PagenotfoundComponent</text>
</g>
<!-- PagenotfoundComponent&#45;&gt;AppModule -->
<g id="edge11" class="edge">
<title>PagenotfoundComponent&#45;&gt;AppModule</title>
<path fill="none" stroke="black" d="M2084.64,-84.91C2084.64,-84.91 2084.64,-103.79 2084.64,-103.79"/>
<polygon fill="black" stroke="black" points="2081.14,-103.79 2084.64,-113.79 2088.14,-103.79 2081.14,-103.79"/>
</g>
<!-- ResourceItemBlockComponent -->
<g id="node12" class="node">
<title>ResourceItemBlockComponent</title>
<polygon fill="#ffffb3" stroke="black" points="2054.02,-84.8 1861.98,-84.8 1861.98,-48.8 2054.02,-48.8 2054.02,-84.8"/>
<text text-anchor="middle" x="1958" y="-62.6" font-family="Times,serif" font-size="14.00">ResourceItemBlockComponent</text>
</g>
<!-- ResourceItemBlockComponent&#45;&gt;AppModule -->
<g id="edge12" class="edge">
<title>ResourceItemBlockComponent&#45;&gt;AppModule</title>
<path fill="none" stroke="black" d="M2033.71,-84.91C2033.71,-84.91 2033.71,-103.79 2033.71,-103.79"/>
<polygon fill="black" stroke="black" points="2030.22,-103.79 2033.71,-113.79 2037.22,-103.79 2030.22,-103.79"/>
</g>
<!-- ResourceItemListComponent -->
<g id="node13" class="node">
<title>ResourceItemListComponent</title>
<polygon fill="#ffffb3" stroke="black" points="1843.35,-84.8 1662.65,-84.8 1662.65,-48.8 1843.35,-48.8 1843.35,-84.8"/>
<text text-anchor="middle" x="1753" y="-62.6" font-family="Times,serif" font-size="14.00">ResourceItemListComponent</text>
</g>
<!-- ResourceItemListComponent&#45;&gt;AppModule -->
<g id="edge13" class="edge">
<title>ResourceItemListComponent&#45;&gt;AppModule</title>
<path fill="none" stroke="black" d="M1753,-84.92C1753,-99.58 1753,-117.8 1753,-117.8 1753,-117.8 2003.33,-117.8 2003.33,-117.8"/>
<polygon fill="black" stroke="black" points="2003.33,-121.3 2013.33,-117.8 2003.33,-114.3 2003.33,-121.3"/>
</g>
<!-- ResourcesComponent -->
<g id="node14" class="node">
<title>ResourcesComponent</title>
<polygon fill="#ffffb3" stroke="black" points="1644.36,-84.8 1505.64,-84.8 1505.64,-48.8 1644.36,-48.8 1644.36,-84.8"/>
<text text-anchor="middle" x="1575" y="-62.6" font-family="Times,serif" font-size="14.00">ResourcesComponent</text>
</g>
<!-- ResourcesComponent&#45;&gt;AppModule -->
<g id="edge14" class="edge">
<title>ResourcesComponent&#45;&gt;AppModule</title>
<path fill="none" stroke="black" d="M1575,-85.08C1575,-100.75 1575,-120.8 1575,-120.8 1575,-120.8 2003.24,-120.8 2003.24,-120.8"/>
<polygon fill="black" stroke="black" points="2003.24,-124.3 2013.24,-120.8 2003.24,-117.3 2003.24,-124.3"/>
</g>
<!-- ResourcesFilterComponent -->
<g id="node15" class="node">
<title>ResourcesFilterComponent</title>
<polygon fill="#ffffb3" stroke="black" points="1487.69,-84.8 1318.31,-84.8 1318.31,-48.8 1487.69,-48.8 1487.69,-84.8"/>
<text text-anchor="middle" x="1403" y="-62.6" font-family="Times,serif" font-size="14.00">ResourcesFilterComponent</text>
</g>
<!-- ResourcesFilterComponent&#45;&gt;AppModule -->
<g id="edge15" class="edge">
<title>ResourcesFilterComponent&#45;&gt;AppModule</title>
<path fill="none" stroke="black" d="M1403,-84.84C1403,-101.53 1403,-123.8 1403,-123.8 1403,-123.8 2003.22,-123.8 2003.22,-123.8"/>
<polygon fill="black" stroke="black" points="2003.22,-127.3 2013.22,-123.8 2003.22,-120.3 2003.22,-127.3"/>
</g>
<!-- ResourcesViewBlockComponent -->
<g id="node16" class="node">
<title>ResourcesViewBlockComponent</title>
<polygon fill="#ffffb3" stroke="black" points="1300.12,-84.8 1097.88,-84.8 1097.88,-48.8 1300.12,-48.8 1300.12,-84.8"/>
<text text-anchor="middle" x="1199" y="-62.6" font-family="Times,serif" font-size="14.00">ResourcesViewBlockComponent</text>
</g>
<!-- ResourcesViewBlockComponent&#45;&gt;AppModule -->
<g id="edge16" class="edge">
<title>ResourcesViewBlockComponent&#45;&gt;AppModule</title>
<path fill="none" stroke="black" d="M1199,-85.1C1199,-103.07 1199,-127.8 1199,-127.8 1199,-127.8 2003.13,-127.8 2003.13,-127.8"/>
<polygon fill="black" stroke="black" points="2003.13,-131.3 2013.13,-127.8 2003.13,-124.3 2003.13,-131.3"/>
</g>
<!-- ResourcesViewListComponent -->
<g id="node17" class="node">
<title>ResourcesViewListComponent</title>
<polygon fill="#ffffb3" stroke="black" points="1079.46,-84.8 888.54,-84.8 888.54,-48.8 1079.46,-48.8 1079.46,-84.8"/>
<text text-anchor="middle" x="984" y="-62.6" font-family="Times,serif" font-size="14.00">ResourcesViewListComponent</text>
</g>
<!-- ResourcesViewListComponent&#45;&gt;AppModule -->
<g id="edge17" class="edge">
<title>ResourcesViewListComponent&#45;&gt;AppModule</title>
<path fill="none" stroke="black" d="M984,-84.97C984,-103.89 984,-130.8 984,-130.8 984,-130.8 2003.02,-130.8 2003.02,-130.8"/>
<polygon fill="black" stroke="black" points="2003.02,-134.3 2013.02,-130.8 2003.02,-127.3 2003.02,-134.3"/>
</g>
<!-- SignupComponent -->
<g id="node18" class="node">
<title>SignupComponent</title>
<polygon fill="#ffffb3" stroke="black" points="870.51,-84.8 749.49,-84.8 749.49,-48.8 870.51,-48.8 870.51,-84.8"/>
<text text-anchor="middle" x="810" y="-62.6" font-family="Times,serif" font-size="14.00">SignupComponent</text>
</g>
<!-- SignupComponent&#45;&gt;AppModule -->
<g id="edge18" class="edge">
<title>SignupComponent&#45;&gt;AppModule</title>
<path fill="none" stroke="black" d="M810,-85.11C810,-104.95 810,-133.8 810,-133.8 810,-133.8 2003.22,-133.8 2003.22,-133.8"/>
<polygon fill="black" stroke="black" points="2003.22,-137.3 2013.22,-133.8 2003.22,-130.3 2003.22,-137.3"/>
</g>
<!-- SingleResourcesComponent -->
<g id="node19" class="node">
<title>SingleResourcesComponent</title>
<polygon fill="#ffffb3" stroke="black" points="731.14,-84.8 556.86,-84.8 556.86,-48.8 731.14,-48.8 731.14,-84.8"/>
<text text-anchor="middle" x="644" y="-62.6" font-family="Times,serif" font-size="14.00">SingleResourcesComponent</text>
</g>
<!-- SingleResourcesComponent&#45;&gt;AppModule -->
<g id="edge19" class="edge">
<title>SingleResourcesComponent&#45;&gt;AppModule</title>
<path fill="none" stroke="black" d="M644,-84.83C644,-105.57 644,-136.8 644,-136.8 644,-136.8 2003.15,-136.8 2003.15,-136.8"/>
<polygon fill="black" stroke="black" points="2003.15,-140.3 2013.15,-136.8 2003.15,-133.3 2003.15,-140.3"/>
</g>
<!-- UsersListComponent -->
<g id="node20" class="node">
<title>UsersListComponent</title>
<polygon fill="#ffffb3" stroke="black" points="538.48,-84.8 403.52,-84.8 403.52,-48.8 538.48,-48.8 538.48,-84.8"/>
<text text-anchor="middle" x="471" y="-62.6" font-family="Times,serif" font-size="14.00">UsersListComponent</text>
</g>
<!-- UsersListComponent&#45;&gt;AppModule -->
<g id="edge20" class="edge">
<title>UsersListComponent&#45;&gt;AppModule</title>
<path fill="none" stroke="black" d="M471,-85.09C471,-107.01 471,-140.8 471,-140.8 471,-140.8 2003.04,-140.8 2003.04,-140.8"/>
<polygon fill="black" stroke="black" points="2003.04,-144.3 2013.04,-140.8 2003.04,-137.3 2003.04,-144.3"/>
</g>
<!-- AppComponent  -->
<g id="node23" class="node">
<title>AppComponent </title>
<polygon fill="#80b1d3" stroke="black" points="2109.44,-214.8 2000.56,-214.8 2000.56,-178.8 2109.44,-178.8 2109.44,-214.8"/>
<text text-anchor="middle" x="2055" y="-192.6" font-family="Times,serif" font-size="14.00">AppComponent </text>
</g>
<!-- AppModule&#45;&gt;AppComponent  -->
<g id="edge22" class="edge">
<title>AppModule&#45;&gt;AppComponent </title>
<path fill="none" stroke="black" stroke-dasharray="1,5" d="M2055,-149.91C2055,-149.91 2055,-168.79 2055,-168.79"/>
<polygon fill="black" stroke="black" points="2051.5,-168.79 2055,-178.79 2058.5,-168.79 2051.5,-168.79"/>
</g>
<!-- AppRoutingModule -->
<g id="node22" class="node">
<title>AppRoutingModule</title>
<polygon fill="#8dd3c7" stroke="black" points="152.27,-84.8 149.27,-88.8 128.27,-88.8 125.27,-84.8 23.73,-84.8 23.73,-48.8 152.27,-48.8 152.27,-84.8"/>
<text text-anchor="middle" x="88" y="-62.6" font-family="Times,serif" font-size="14.00">AppRoutingModule</text>
</g>
<!-- AppRoutingModule&#45;&gt;AppModule -->
<g id="edge21" class="edge">
<title>AppRoutingModule&#45;&gt;AppModule</title>
<path fill="none" stroke="black" d="M88,-84.95C88,-108.56 88,-146.8 88,-146.8 88,-146.8 2003.01,-146.8 2003.01,-146.8"/>
<polygon fill="black" stroke="black" points="2003.01,-150.3 2013.01,-146.8 2003.01,-143.3 2003.01,-150.3"/>
</g>
<!-- HttpRequestInterceptor -->
<g id="node24" class="node">
<title>HttpRequestInterceptor</title>
<ellipse fill="#fdb462" stroke="black" cx="278" cy="-66.8" rx="101.84" ry="18"/>
<text text-anchor="middle" x="278" y="-62.6" font-family="Times,serif" font-size="14.00">HttpRequestInterceptor</text>
</g>
<!-- HttpRequestInterceptor&#45;&gt;AppModule -->
<g id="edge23" class="edge">
<title>HttpRequestInterceptor&#45;&gt;AppModule</title>
<path fill="none" stroke="black" d="M278,-85.05C278,-107.82 278,-143.8 278,-143.8 278,-143.8 2003.26,-143.8 2003.26,-143.8"/>
<polygon fill="black" stroke="black" points="2003.26,-147.3 2013.26,-143.8 2003.26,-140.3 2003.26,-147.3"/>
</g>
</g>
</svg>
