<?xml version="1.0" encoding="UTF-8" standalone="no"?>
<!DOCTYPE svg PUBLIC "-//W3C//DTD SVG 1.1//EN"
 "http://www.w3.org/Graphics/SVG/1.1/DTD/svg11.dtd">
<!-- Generated by graphviz version 2.47.3 (20210619.1520)
 -->
<!-- Title: dependencies Pages: 1 -->
<svg width="4159pt" height="247pt"
 viewBox="0.00 0.00 4159.00 246.80" xmlns="http://www.w3.org/2000/svg" xmlns:xlink="http://www.w3.org/1999/xlink">
<g id="graph0" class="graph" transform="scale(1 1) rotate(0) translate(4 242.8)">
<title>dependencies</title>
<polygon fill="white" stroke="transparent" points="-4,4 -4,-242.8 4155,-242.8 4155,4 -4,4"/>
<text text-anchor="middle" x="2075.5" y="-8.2" font-family="sans-serif" font-size="14.00">dependencies</text>
<g id="clust1" class="cluster">
<title>cluster_AppModule</title>
<polygon fill="none" stroke="black" stroke-dasharray="1,5" points="8,-32.8 8,-230.8 4143,-230.8 4143,-32.8 8,-32.8"/>
</g>
<g id="clust23" class="cluster">
<title>cluster_AppModule_imports</title>
<polygon fill="none" stroke="black" points="3991,-40.8 3991,-92.8 4135,-92.8 4135,-40.8 3991,-40.8"/>
</g>
<g id="clust25" class="cluster">
<title>cluster_AppModule_bootstrap</title>
<polygon fill="none" stroke="black" points="2049,-170.8 2049,-222.8 2173,-222.8 2173,-170.8 2049,-170.8"/>
</g>
<g id="clust2" class="cluster">
<title>cluster_AppModule_declarations</title>
<polygon fill="none" stroke="black" points="244,-40.8 244,-92.8 3983,-92.8 3983,-40.8 244,-40.8"/>
</g>
<g id="clust26" class="cluster">
<title>cluster_AppModule_providers</title>
<polygon fill="none" stroke="black" points="16,-40.8 16,-92.8 236,-92.8 236,-40.8 16,-40.8"/>
</g>
<!-- AccountComponent -->
<g id="node1" class="node">
<title>AccountComponent</title>
<polygon fill="#ffffb3" stroke="black" points="3975.26,-84.8 3846.74,-84.8 3846.74,-48.8 3975.26,-48.8 3975.26,-84.8"/>
<text text-anchor="middle" x="3911" y="-62.6" font-family="Times,serif" font-size="14.00">AccountComponent</text>
</g>
<!-- AppModule -->
<g id="node21" class="node">
<title>AppModule</title>
<polygon fill="#8dd3c7" stroke="black" points="2152.66,-149.8 2149.66,-153.8 2128.66,-153.8 2125.66,-149.8 2069.34,-149.8 2069.34,-113.8 2152.66,-113.8 2152.66,-149.8"/>
<text text-anchor="middle" x="2111" y="-127.6" font-family="Times,serif" font-size="14.00">AppModule</text>
</g>
<!-- AccountComponent&#45;&gt;AppModule -->
<g id="edge1" class="edge">
<title>AccountComponent&#45;&gt;AppModule</title>
<path fill="none" stroke="black" d="M3911,-85.05C3911,-107.82 3911,-143.8 3911,-143.8 3911,-143.8 2162.84,-143.8 2162.84,-143.8"/>
<polygon fill="black" stroke="black" points="2162.84,-140.3 2152.84,-143.8 2162.84,-147.3 2162.84,-140.3"/>
</g>
<!-- AppComponent -->
<g id="node2" class="node">
<title>AppComponent</title>
<polygon fill="#ffffb3" stroke="black" points="3828.94,-84.8 3723.06,-84.8 3723.06,-48.8 3828.94,-48.8 3828.94,-84.8"/>
<text text-anchor="middle" x="3776" y="-62.6" font-family="Times,serif" font-size="14.00">AppComponent</text>
</g>
<!-- AppComponent&#45;&gt;AppModule -->
<g id="edge2" class="edge">
<title>AppComponent&#45;&gt;AppModule</title>
<path fill="none" stroke="black" d="M3776,-85.09C3776,-107.01 3776,-140.8 3776,-140.8 3776,-140.8 2162.99,-140.8 2162.99,-140.8"/>
<polygon fill="black" stroke="black" points="2162.99,-137.3 2152.99,-140.8 2162.99,-144.3 2162.99,-137.3"/>
</g>
<!-- CreateResourceComponent -->
<g id="node3" class="node">
<title>CreateResourceComponent</title>
<polygon fill="#ffffb3" stroke="black" points="3704.95,-84.8 3535.05,-84.8 3535.05,-48.8 3704.95,-48.8 3704.95,-84.8"/>
<text text-anchor="middle" x="3620" y="-62.6" font-family="Times,serif" font-size="14.00">CreateResourceComponent</text>
</g>
<!-- CreateResourceComponent&#45;&gt;AppModule -->
<g id="edge3" class="edge">
<title>CreateResourceComponent&#45;&gt;AppModule</title>
<path fill="none" stroke="black" d="M3620,-84.83C3620,-105.57 3620,-136.8 3620,-136.8 3620,-136.8 2162.93,-136.8 2162.93,-136.8"/>
<polygon fill="black" stroke="black" points="2162.93,-133.3 2152.93,-136.8 2162.93,-140.3 2162.93,-133.3"/>
</g>
<!-- HeaderComponent -->
<g id="node4" class="node">
<title>HeaderComponent</title>
<polygon fill="#ffffb3" stroke="black" points="3516.74,-84.8 3395.26,-84.8 3395.26,-48.8 3516.74,-48.8 3516.74,-84.8"/>
<text text-anchor="middle" x="3456" y="-62.6" font-family="Times,serif" font-size="14.00">HeaderComponent</text>
</g>
<!-- HeaderComponent&#45;&gt;AppModule -->
<g id="edge4" class="edge">
<title>HeaderComponent&#45;&gt;AppModule</title>
<path fill="none" stroke="black" d="M3456,-85.11C3456,-104.95 3456,-133.8 3456,-133.8 3456,-133.8 2162.73,-133.8 2162.73,-133.8"/>
<polygon fill="black" stroke="black" points="2162.73,-130.3 2152.73,-133.8 2162.73,-137.3 2162.73,-130.3"/>
</g>
<!-- LoginComponent -->
<g id="node5" class="node">
<title>LoginComponent</title>
<polygon fill="#ffffb3" stroke="black" points="3377.28,-84.8 3262.72,-84.8 3262.72,-48.8 3377.28,-48.8 3377.28,-84.8"/>
<text text-anchor="middle" x="3320" y="-62.6" font-family="Times,serif" font-size="14.00">LoginComponent</text>
</g>
<!-- LoginComponent&#45;&gt;AppModule -->
<g id="edge5" class="edge">
<title>LoginComponent&#45;&gt;AppModule</title>
<path fill="none" stroke="black" d="M3320,-84.97C3320,-103.89 3320,-130.8 3320,-130.8 3320,-130.8 2162.97,-130.8 2162.97,-130.8"/>
<polygon fill="black" stroke="black" points="2162.97,-127.3 2152.97,-130.8 2162.97,-134.3 2162.97,-127.3"/>
</g>
<!-- MapPageComponent -->
<g id="node6" class="node">
<title>MapPageComponent</title>
<polygon fill="#ffffb3" stroke="black" points="3245.2,-84.8 3110.8,-84.8 3110.8,-48.8 3245.2,-48.8 3245.2,-84.8"/>
<text text-anchor="middle" x="3178" y="-62.6" font-family="Times,serif" font-size="14.00">MapPageComponent</text>
</g>
<!-- MapPageComponent&#45;&gt;AppModule -->
<g id="edge6" class="edge">
<title>MapPageComponent&#45;&gt;AppModule</title>
<path fill="none" stroke="black" d="M3178,-85.1C3178,-103.07 3178,-127.8 3178,-127.8 3178,-127.8 2162.83,-127.8 2162.83,-127.8"/>
<polygon fill="black" stroke="black" points="2162.83,-124.3 2152.83,-127.8 2162.83,-131.3 2162.83,-124.3"/>
</g>
<!-- ModalDeleteResourceComponent -->
<g id="node7" class="node">
<title>ModalDeleteResourceComponent</title>
<polygon fill="#ffffb3" stroke="black" points="3093.5,-84.8 2886.5,-84.8 2886.5,-48.8 3093.5,-48.8 3093.5,-84.8"/>
<text text-anchor="middle" x="2990" y="-62.6" font-family="Times,serif" font-size="14.00">ModalDeleteResourceComponent</text>
</g>
<!-- ModalDeleteResourceComponent&#45;&gt;AppModule -->
<g id="edge7" class="edge">
<title>ModalDeleteResourceComponent&#45;&gt;AppModule</title>
<path fill="none" stroke="black" d="M2990,-84.84C2990,-101.53 2990,-123.8 2990,-123.8 2990,-123.8 2162.8,-123.8 2162.8,-123.8"/>
<polygon fill="black" stroke="black" points="2162.8,-120.3 2152.8,-123.8 2162.8,-127.3 2162.8,-120.3"/>
</g>
<!-- ModalSingleResourcesComponent -->
<g id="node8" class="node">
<title>ModalSingleResourcesComponent</title>
<polygon fill="#ffffb3" stroke="black" points="2868.69,-84.8 2657.31,-84.8 2657.31,-48.8 2868.69,-48.8 2868.69,-84.8"/>
<text text-anchor="middle" x="2763" y="-62.6" font-family="Times,serif" font-size="14.00">ModalSingleResourcesComponent</text>
</g>
<!-- ModalSingleResourcesComponent&#45;&gt;AppModule -->
<g id="edge8" class="edge">
<title>ModalSingleResourcesComponent&#45;&gt;AppModule</title>
<path fill="none" stroke="black" d="M2763,-85.08C2763,-100.75 2763,-120.8 2763,-120.8 2763,-120.8 2162.78,-120.8 2162.78,-120.8"/>
<polygon fill="black" stroke="black" points="2162.78,-117.3 2152.78,-120.8 2162.78,-124.3 2162.78,-117.3"/>
</g>
<!-- ModalSingleResourcesParametersComponent -->
<g id="node9" class="node">
<title>ModalSingleResourcesParametersComponent</title>
<polygon fill="#ffffb3" stroke="black" points="2639.88,-84.8 2366.12,-84.8 2366.12,-48.8 2639.88,-48.8 2639.88,-84.8"/>
<text text-anchor="middle" x="2503" y="-62.6" font-family="Times,serif" font-size="14.00">ModalSingleResourcesParametersComponent</text>
</g>
<!-- ModalSingleResourcesParametersComponent&#45;&gt;AppModule -->
<g id="edge9" class="edge">
<title>ModalSingleResourcesParametersComponent&#45;&gt;AppModule</title>
<path fill="none" stroke="black" d="M2503,-84.92C2503,-99.58 2503,-117.8 2503,-117.8 2503,-117.8 2162.95,-117.8 2162.95,-117.8"/>
<polygon fill="black" stroke="black" points="2162.95,-114.3 2152.95,-117.8 2162.95,-121.3 2162.95,-114.3"/>
</g>
<!-- ModalSingleResourcesValuesComponent -->
<g id="node10" class="node">
<title>ModalSingleResourcesValuesComponent</title>
<polygon fill="#ffffb3" stroke="black" points="2348.06,-84.8 2097.94,-84.8 2097.94,-48.8 2348.06,-48.8 2348.06,-84.8"/>
<text text-anchor="middle" x="2223" y="-62.6" font-family="Times,serif" font-size="14.00">ModalSingleResourcesValuesComponent</text>
</g>
<!-- ModalSingleResourcesValuesComponent&#45;&gt;AppModule -->
<g id="edge10" class="edge">
<title>ModalSingleResourcesValuesComponent&#45;&gt;AppModule</title>
<path fill="none" stroke="black" d="M2125.4,-84.91C2125.4,-84.91 2125.4,-103.79 2125.4,-103.79"/>
<polygon fill="black" stroke="black" points="2121.9,-103.79 2125.4,-113.79 2128.9,-103.79 2121.9,-103.79"/>
</g>
<!-- PagenotfoundComponent -->
<g id="node11" class="node">
<title>PagenotfoundComponent</title>
<polygon fill="#ffffb3" stroke="black" points="2079.6,-84.8 1920.4,-84.8 1920.4,-48.8 2079.6,-48.8 2079.6,-84.8"/>
<text text-anchor="middle" x="2000" y="-62.6" font-family="Times,serif" font-size="14.00">PagenotfoundComponent</text>
</g>
<!-- PagenotfoundComponent&#45;&gt;AppModule -->
<g id="edge11" class="edge">
<title>PagenotfoundComponent&#45;&gt;AppModule</title>
<path fill="none" stroke="black" d="M2074.36,-84.91C2074.36,-84.91 2074.36,-103.79 2074.36,-103.79"/>
<polygon fill="black" stroke="black" points="2070.86,-103.79 2074.36,-113.79 2077.86,-103.79 2070.86,-103.79"/>
</g>
<!-- ResourceItemBlockComponent -->
<g id="node12" class="node">
<title>ResourceItemBlockComponent</title>
<polygon fill="#ffffb3" stroke="black" points="1902.02,-84.8 1709.98,-84.8 1709.98,-48.8 1902.02,-48.8 1902.02,-84.8"/>
<text text-anchor="middle" x="1806" y="-62.6" font-family="Times,serif" font-size="14.00">ResourceItemBlockComponent</text>
</g>
<!-- ResourceItemBlockComponent&#45;&gt;AppModule -->
<g id="edge12" class="edge">
<title>ResourceItemBlockComponent&#45;&gt;AppModule</title>
<path fill="none" stroke="black" d="M1806,-84.92C1806,-99.58 1806,-117.8 1806,-117.8 1806,-117.8 2059.23,-117.8 2059.23,-117.8"/>
<polygon fill="black" stroke="black" points="2059.23,-121.3 2069.23,-117.8 2059.23,-114.3 2059.23,-121.3"/>
</g>
<!-- ResourceItemListComponent -->
<g id="node13" class="node">
<title>ResourceItemListComponent</title>
<polygon fill="#ffffb3" stroke="black" points="1691.35,-84.8 1510.65,-84.8 1510.65,-48.8 1691.35,-48.8 1691.35,-84.8"/>
<text text-anchor="middle" x="1601" y="-62.6" font-family="Times,serif" font-size="14.00">ResourceItemListComponent</text>
</g>
<!-- ResourceItemListComponent&#45;&gt;AppModule -->
<g id="edge13" class="edge">
<title>ResourceItemListComponent&#45;&gt;AppModule</title>
<path fill="none" stroke="black" d="M1601,-85.08C1601,-100.75 1601,-120.8 1601,-120.8 1601,-120.8 2059.26,-120.8 2059.26,-120.8"/>
<polygon fill="black" stroke="black" points="2059.26,-124.3 2069.26,-120.8 2059.26,-117.3 2059.26,-124.3"/>
</g>
<!-- ResourcesComponent -->
<g id="node14" class="node">
<title>ResourcesComponent</title>
<polygon fill="#ffffb3" stroke="black" points="1492.36,-84.8 1353.64,-84.8 1353.64,-48.8 1492.36,-48.8 1492.36,-84.8"/>
<text text-anchor="middle" x="1423" y="-62.6" font-family="Times,serif" font-size="14.00">ResourcesComponent</text>
</g>
<!-- ResourcesComponent&#45;&gt;AppModule -->
<g id="edge14" class="edge">
<title>ResourcesComponent&#45;&gt;AppModule</title>
<path fill="none" stroke="black" d="M1423,-84.84C1423,-101.53 1423,-123.8 1423,-123.8 1423,-123.8 2059.26,-123.8 2059.26,-123.8"/>
<polygon fill="black" stroke="black" points="2059.26,-127.3 2069.26,-123.8 2059.26,-120.3 2059.26,-127.3"/>
</g>
<!-- ResourcesFilterComponent -->
<g id="node15" class="node">
<title>ResourcesFilterComponent</title>
<polygon fill="#ffffb3" stroke="black" points="1335.69,-84.8 1166.31,-84.8 1166.31,-48.8 1335.69,-48.8 1335.69,-84.8"/>
<text text-anchor="middle" x="1251" y="-62.6" font-family="Times,serif" font-size="14.00">ResourcesFilterComponent</text>
</g>
<!-- ResourcesFilterComponent&#45;&gt;AppModule -->
<g id="edge15" class="edge">
<title>ResourcesFilterComponent&#45;&gt;AppModule</title>
<path fill="none" stroke="black" d="M1251,-85.1C1251,-103.07 1251,-127.8 1251,-127.8 1251,-127.8 2059.23,-127.8 2059.23,-127.8"/>
<polygon fill="black" stroke="black" points="2059.23,-131.3 2069.23,-127.8 2059.23,-124.3 2059.23,-131.3"/>
</g>
<!-- ResourcesViewBlockComponent -->
<g id="node16" class="node">
<title>ResourcesViewBlockComponent</title>
<polygon fill="#ffffb3" stroke="black" points="1148.12,-84.8 945.88,-84.8 945.88,-48.8 1148.12,-48.8 1148.12,-84.8"/>
<text text-anchor="middle" x="1047" y="-62.6" font-family="Times,serif" font-size="14.00">ResourcesViewBlockComponent</text>
</g>
<!-- ResourcesViewBlockComponent&#45;&gt;AppModule -->
<g id="edge16" class="edge">
<title>ResourcesViewBlockComponent&#45;&gt;AppModule</title>
<path fill="none" stroke="black" d="M1047,-84.97C1047,-103.89 1047,-130.8 1047,-130.8 1047,-130.8 2059.29,-130.8 2059.29,-130.8"/>
<polygon fill="black" stroke="black" points="2059.29,-134.3 2069.29,-130.8 2059.29,-127.3 2059.29,-134.3"/>
</g>
<!-- ResourcesViewListComponent -->
<g id="node17" class="node">
<title>ResourcesViewListComponent</title>
<polygon fill="#ffffb3" stroke="black" points="927.46,-84.8 736.54,-84.8 736.54,-48.8 927.46,-48.8 927.46,-84.8"/>
<text text-anchor="middle" x="832" y="-62.6" font-family="Times,serif" font-size="14.00">ResourcesViewListComponent</text>
</g>
<!-- ResourcesViewListComponent&#45;&gt;AppModule -->
<g id="edge17" class="edge">
<title>ResourcesViewListComponent&#45;&gt;AppModule</title>
<path fill="none" stroke="black" d="M832,-85.11C832,-104.95 832,-133.8 832,-133.8 832,-133.8 2059.17,-133.8 2059.17,-133.8"/>
<polygon fill="black" stroke="black" points="2059.17,-137.3 2069.17,-133.8 2059.17,-130.3 2059.17,-137.3"/>
</g>
<!-- SignupComponent -->
<g id="node18" class="node">
<title>SignupComponent</title>
<polygon fill="#ffffb3" stroke="black" points="718.51,-84.8 597.49,-84.8 597.49,-48.8 718.51,-48.8 718.51,-84.8"/>
<text text-anchor="middle" x="658" y="-62.6" font-family="Times,serif" font-size="14.00">SignupComponent</text>
</g>
<!-- SignupComponent&#45;&gt;AppModule -->
<g id="edge18" class="edge">
<title>SignupComponent&#45;&gt;AppModule</title>
<path fill="none" stroke="black" d="M658,-84.83C658,-105.57 658,-136.8 658,-136.8 658,-136.8 2059.08,-136.8 2059.08,-136.8"/>
<polygon fill="black" stroke="black" points="2059.08,-140.3 2069.08,-136.8 2059.08,-133.3 2059.08,-140.3"/>
</g>
<!-- SingleResourcesComponent -->
<g id="node19" class="node">
<title>SingleResourcesComponent</title>
<polygon fill="#ffffb3" stroke="black" points="579.14,-84.8 404.86,-84.8 404.86,-48.8 579.14,-48.8 579.14,-84.8"/>
<text text-anchor="middle" x="492" y="-62.6" font-family="Times,serif" font-size="14.00">SingleResourcesComponent</text>
</g>
<!-- SingleResourcesComponent&#45;&gt;AppModule -->
<g id="edge19" class="edge">
<title>SingleResourcesComponent&#45;&gt;AppModule</title>
<path fill="none" stroke="black" d="M492,-85.09C492,-107.01 492,-140.8 492,-140.8 492,-140.8 2058.94,-140.8 2058.94,-140.8"/>
<polygon fill="black" stroke="black" points="2058.94,-144.3 2068.94,-140.8 2058.94,-137.3 2058.94,-144.3"/>
</g>
<!-- UsersListComponent -->
<g id="node20" class="node">
<title>UsersListComponent</title>
<polygon fill="#ffffb3" stroke="black" points="386.48,-84.8 251.52,-84.8 251.52,-48.8 386.48,-48.8 386.48,-84.8"/>
<text text-anchor="middle" x="319" y="-62.6" font-family="Times,serif" font-size="14.00">UsersListComponent</text>
</g>
<!-- UsersListComponent&#45;&gt;AppModule -->
<g id="edge20" class="edge">
<title>UsersListComponent&#45;&gt;AppModule</title>
<path fill="none" stroke="black" d="M319,-85.05C319,-107.82 319,-143.8 319,-143.8 319,-143.8 2059.34,-143.8 2059.34,-143.8"/>
<polygon fill="black" stroke="black" points="2059.34,-147.3 2069.34,-143.8 2059.34,-140.3 2059.34,-147.3"/>
</g>
<!-- AppComponent  -->
<g id="node23" class="node">
<title>AppComponent </title>
<polygon fill="#80b1d3" stroke="black" points="2165.44,-214.8 2056.56,-214.8 2056.56,-178.8 2165.44,-178.8 2165.44,-214.8"/>
<text text-anchor="middle" x="2111" y="-192.6" font-family="Times,serif" font-size="14.00">AppComponent </text>
</g>
<!-- AppModule&#45;&gt;AppComponent  -->
<g id="edge22" class="edge">
<title>AppModule&#45;&gt;AppComponent </title>
<path fill="none" stroke="black" stroke-dasharray="1,5" d="M2111,-149.91C2111,-149.91 2111,-168.79 2111,-168.79"/>
<polygon fill="black" stroke="black" points="2107.5,-168.79 2111,-178.79 2114.5,-168.79 2107.5,-168.79"/>
</g>
<!-- AppRoutingModule -->
<g id="node22" class="node">
<title>AppRoutingModule</title>
<polygon fill="#8dd3c7" stroke="black" points="4127.27,-84.8 4124.27,-88.8 4103.27,-88.8 4100.27,-84.8 3998.73,-84.8 3998.73,-48.8 4127.27,-48.8 4127.27,-84.8"/>
<text text-anchor="middle" x="4063" y="-62.6" font-family="Times,serif" font-size="14.00">AppRoutingModule</text>
</g>
<!-- AppRoutingModule&#45;&gt;AppModule -->
<g id="edge21" class="edge">
<title>AppRoutingModule&#45;&gt;AppModule</title>
<path fill="none" stroke="black" d="M4063,-84.95C4063,-108.56 4063,-146.8 4063,-146.8 4063,-146.8 2162.67,-146.8 2162.67,-146.8"/>
<polygon fill="black" stroke="black" points="2162.67,-143.3 2152.67,-146.8 2162.67,-150.3 2162.67,-143.3"/>
</g>
<!-- HttpRequestInterceptor -->
<g id="node24" class="node">
<title>HttpRequestInterceptor</title>
<ellipse fill="#fdb462" stroke="black" cx="126" cy="-66.8" rx="101.84" ry="18"/>
<text text-anchor="middle" x="126" y="-62.6" font-family="Times,serif" font-size="14.00">HttpRequestInterceptor</text>
</g>
<!-- HttpRequestInterceptor&#45;&gt;AppModule -->
<g id="edge23" class="edge">
<title>HttpRequestInterceptor&#45;&gt;AppModule</title>
<path fill="none" stroke="black" d="M126,-84.95C126,-108.56 126,-146.8 126,-146.8 126,-146.8 2059.08,-146.8 2059.08,-146.8"/>
<polygon fill="black" stroke="black" points="2059.08,-150.3 2069.08,-146.8 2059.08,-143.3 2059.08,-150.3"/>
</g>
</g>
</svg>
